<?xml version="1.0" standalone="no"?>
<!DOCTYPE svg PUBLIC "-//W3C//DTD SVG 20010904//EN"
 "http://www.w3.org/TR/2001/REC-SVG-20010904/DTD/svg10.dtd">
<svg version="1.0" xmlns="http://www.w3.org/2000/svg"
 width="296.000000pt" height="296.000000pt" viewBox="0 0 296.000000 296.000000"
 preserveAspectRatio="xMidYMid meet">
<metadata>
Created by potrace 1.14, written by Peter Selinger 2001-2017
</metadata>
<g transform="translate(0.000000,296.000000) scale(0.100000,-0.100000)"
fill="#000000" stroke="none">
<path d="M1236 2894 c-18 -16 -40 -24 -65 -24 -22 0 -48 -8 -62 -19 -13 -10
-40 -23 -60 -30 -20 -7 -48 -22 -62 -34 -24 -21 -67 -96 -67 -116 0 -5 -13
-24 -29 -42 -18 -19 -33 -49 -37 -73 -4 -23 -19 -55 -35 -74 -31 -34 -34 -48
-20 -71 6 -9 2 -30 -10 -59 -19 -45 -28 -120 -15 -140 3 -5 -3 -38 -14 -73
-22 -66 -46 -156 -54 -199 -2 -14 -9 -47 -15 -75 -14 -68 -20 -108 -27 -192
-7 -72 -14 -81 -42 -56 -18 17 -47 1 -67 -37 -9 -16 -15 -32 -14 -35 0 -3 -2
-22 -5 -43 -11 -68 -9 -356 2 -385 7 -15 23 -32 37 -39 15 -7 24 -19 24 -32
-2 -72 43 -287 78 -366 41 -96 69 -150 76 -150 5 0 6 -3 3 -8 -6 -11 86 -156
154 -241 147 -186 288 -250 474 -216 32 5 92 23 176 50 37 12 70 28 70 34 0 4
12 8 27 9 14 1 34 8 42 15 9 7 34 22 56 32 22 11 42 23 43 28 2 4 8 7 13 7 11
0 72 42 77 53 2 4 8 7 13 7 12 0 51 33 129 110 80 79 126 136 245 300 27 38
32 40 65 34 47 -9 84 -6 88 6 2 6 10 10 17 10 14 0 75 88 75 108 0 7 5 12 10
12 6 0 10 6 10 13 0 6 11 39 24 72 46 113 46 112 50 190 3 39 -1 70 -11 89
-14 26 -18 28 -59 23 -24 -2 -47 -1 -50 4 -2 4 2 34 10 66 8 32 17 69 20 83 3
14 19 93 37 175 47 221 43 401 -9 453 -32 32 -43 74 -37 142 6 74 -3 92 -97
203 -17 20 -36 37 -41 37 -5 0 -17 8 -26 19 -9 10 -47 35 -86 56 -38 21 -74
44 -80 51 -5 7 -48 37 -95 68 -47 31 -90 60 -96 65 -18 14 -125 51 -134 46 -4
-2 -19 4 -33 15 -14 11 -30 20 -36 20 -6 0 -11 4 -11 8 0 13 -72 35 -125 38
-28 1 -75 14 -105 28 -56 26 -89 31 -125 17 -13 -5 -35 1 -70 19 -74 39 -87
40 -119 14z"/>
</g>
</svg>
